<?xml version="1.0" standalone="no"?>
<!DOCTYPE svg PUBLIC "-//W3C//DTD SVG 20010904//EN"
 "http://www.w3.org/TR/2001/REC-SVG-20010904/DTD/svg10.dtd">
<svg version="1.0" xmlns="http://www.w3.org/2000/svg"
 width="700.000000pt" height="700.000000pt" viewBox="0 0 700.000000 700.000000"
 preserveAspectRatio="xMidYMid meet">
<metadata>
Created by potrace 1.14, written by Peter Selinger 2001-2017
</metadata>
<g transform="translate(0.000000,700.000000) scale(0.100000,-0.100000)"
fill="#000000" stroke="none">
<path d="M1850 5680 c-236 -38 -432 -206 -506 -433 -23 -70 -27 -99 -27 -197
0 -98 4 -127 27 -197 125 -382 559 -554 914 -362 l76 40 338 -338 c187 -186
344 -346 349 -356 7 -13 4 -25 -14 -50 -14 -17 -41 -64 -61 -104 -165 -331
-84 -742 195 -984 41 -36 58 -58 54 -68 -3 -9 -78 -147 -166 -306 l-161 -290
-78 3 c-87 4 -154 -12 -213 -53 l-34 -23 -308 308 -308 308 12 32 c25 74 8
152 -45 202 -86 80 -226 59 -284 -43 -69 -124 18 -269 161 -269 30 0 61 5 69
10 12 7 81 -57 326 -301 l311 -311 -28 -51 c-75 -140 -52 -302 61 -421 74 -78
149 -110 260 -111 74 0 93 4 150 31 232 110 288 397 114 584 l-24 26 167 299
c91 165 167 301 168 303 2 2 41 -9 87 -24 119 -38 315 -45 439 -16 154 37 267
99 382 211 118 114 190 240 229 400 29 123 22 321 -15 436 -15 44 -23 83 -19
87 8 8 520 292 568 315 30 15 32 14 78 -21 26 -19 54 -39 62 -44 12 -7 7 -37
-38 -204 l-53 -196 -51 -5 c-66 -7 -121 -35 -167 -86 -50 -56 -69 -104 -70
-181 -3 -298 401 -387 524 -115 28 60 25 166 -5 230 -20 45 -74 103 -119 130
-16 9 -12 27 35 198 l53 188 73 4 c138 7 255 87 316 215 27 57 31 76 31 150
-1 113 -33 188 -116 264 -72 67 -147 98 -239 98 -118 1 -221 -46 -289 -132
-62 -78 -84 -148 -79 -250 l4 -86 -303 -168 -303 -169 -22 29 c-42 56 -144
150 -208 192 -237 155 -559 173 -813 46 -40 -20 -86 -47 -104 -60 -17 -13 -35
-24 -40 -24 -4 0 -165 157 -356 348 l-348 348 40 75 c45 84 67 153 77 239 4
34 11 60 18 60 6 0 169 9 361 20 193 11 512 29 710 40 198 11 384 22 413 24
51 4 53 4 66 -27 35 -85 115 -137 209 -137 96 0 168 43 208 127 74 152 -36
326 -206 326 -100 0 -189 -63 -216 -152 -12 -40 -12 -40 -73 -45 -68 -7 -1427
-86 -1466 -86 -23 0 -26 6 -37 62 -16 83 -81 210 -143 280 -140 157 -374 241
-580 208z"/>
</g>
</svg>
