<svg viewBox="-102.4 -102.4 1228.80 1228.80" class="icon" version="1.1" xmlns="http://www.w3.org/2000/svg" fill="#000000">
  <g id="SVGRepo_bgCarrier" stroke-width="0">
    <path transform="translate(-102.4, -102.4), scale(38.4)" d="M16,26.338530928827822C20.362660091023024,26.406361389402694,25.2406528356585,28.888918977645663,28.434247419589198,25.915981427902086C31.891467912139312,22.697632839837134,31.790703972306545,17.240626998541003,30.713358218973724,12.641772000154571C29.644624252320533,8.079678049086636,27.293318843290805,3.2111448732873584,22.802289672423683,1.874899949529194C18.68133954812667,0.648767035413818,15.226917446743757,4.582332405865744,11.651459227893119,6.97016204285287C8.983701512439847,8.751794087572478,6.52314954914922,10.590963438650233,5.306486927132607,13.559275422812256C3.704549077046014,17.467549772864448,1.3306974121278121,22.297387159251414,4.041329686852183,25.536721341153385C6.738782805958976,28.760305806770077,11.79720566953953,26.27318605455646,16,26.338530928827822" fill="#b2cad2" strokewidth="0"></path>
  </g>
  <g id="SVGRepo_tracerCarrier" stroke-linecap="round" stroke-linejoin="round"></g>
  <g id="SVGRepo_iconCarrier">
    <path d="M832 384l8 1.6-1.6 8 1.6 3.2-4.8 3.2-44.8 161.6-16-4.8 40-147.2-260.8 144-158.4 284.8-11.2-6.4-6.4 6.4-176-176 11.2-11.2 163.2 163.2 147.2-265.6-294.4-297.6 11.2-11.2v-8h9.6l3.2-3.2 3.2 3.2L664 208l1.6 16-395.2 22.4 278.4 278.4 276.8-153.6 6.4 12.8z" fill="#696f96"></path>
    <path d="M896 384c0 35.2-28.8 64-64 64s-64-28.8-64-64 28.8-64 64-64 64 28.8 64 64z m-656-32c-62.4 0-112-49.6-112-112s49.6-112 112-112 112 49.6 112 112-49.6 112-112 112z m304 336c-80 0-144-64-144-144s64-144 144-144 144 64 144 144-64 144-144 144z m-224 144c0-35.2 28.8-64 64-64s64 28.8 64 64-28.8 64-64 64-64-28.8-64-64z m-144-176c0-17.6 14.4-32 32-32s32 14.4 32 32-14.4 32-32 32-32-14.4-32-32z m448-440c0-22.4 17.6-40 40-40s40 17.6 40 40-17.6 40-40 40-40-17.6-40-40zM736 560c0-27.2 20.8-48 48-48s48 20.8 48 48-20.8 48-48 48-48-20.8-48-48z" fill="#3135aa"></path>
  </g>
</svg>